<svg width="113" height="113" viewBox="0 0 113 113" fill="none" xmlns="http://www.w3.org/2000/svg">
<path d="M61.2083 69.4479H9.41663C7.48621 69.4479 5.88538 67.8471 5.88538 65.9167V35.8775C5.88538 34.3708 6.827 33.0524 8.19241 32.5345C9.60491 32.0165 11.1587 32.4404 12.1004 33.5704C14.9725 37.0075 19.4454 38.9379 23.8712 38.7966C27.6379 38.7025 31.122 37.2901 33.7586 34.7947C34.9828 33.7588 35.9716 32.5346 36.7249 31.1691C38.1845 28.6737 38.8908 25.9428 38.8437 23.1649C38.7495 18.8333 36.8663 14.8783 33.6647 12.0062C32.5347 11.0174 32.1579 9.46361 32.6758 8.0982C33.1937 6.73278 34.5121 5.79116 35.9717 5.79116H70.625C72.5554 5.79116 74.1562 7.39199 74.1562 9.32241V56.4057C74.1562 63.6566 68.365 69.4479 61.2083 69.4479ZM12.9479 62.3854H61.2083C64.457 62.3854 67.0937 59.7487 67.0937 56.5V12.9479H43.2696C44.9175 16.0083 45.812 19.4455 45.9062 23.0238C46.0004 27.1201 44.9645 31.1691 42.8928 34.7004C41.7628 36.725 40.2091 38.6555 38.5141 40.068C34.7474 43.6463 29.5682 45.765 24.0595 45.9062C20.1045 46.0475 16.2908 45.0588 12.995 43.2696V62.3854H12.9479Z" fill="#087979"/>
<path d="M89.4583 97.6979H84.75C82.8195 97.6979 81.2187 96.0971 81.2187 94.1667C81.2187 90.9179 78.582 88.2812 75.3333 88.2812C72.0845 88.2812 69.4479 90.9179 69.4479 94.1667C69.4479 96.0971 67.847 97.6979 65.9166 97.6979H47.0833C45.1529 97.6979 43.552 96.0971 43.552 94.1667C43.552 90.9179 40.9154 88.2812 37.6666 88.2812C34.4179 88.2812 31.7812 90.9179 31.7812 94.1667C31.7812 96.0971 30.1804 97.6979 28.25 97.6979H23.5416C13.7954 97.6979 5.88538 89.7879 5.88538 80.0417V65.9167C5.88538 63.9862 7.48621 62.3854 9.41663 62.3854H61.2083C64.457 62.3854 67.0937 59.7487 67.0937 56.5V23.5417C67.0937 21.6112 68.6945 20.0104 70.625 20.0104H79.2884C83.9497 20.0104 88.234 22.5059 90.5411 26.5551L98.5925 40.6329C99.2046 41.7159 99.2046 43.0813 98.5925 44.1642C97.9804 45.2471 96.8032 45.9062 95.5319 45.9062H89.4583C88.7991 45.9062 88.2812 46.4242 88.2812 47.0833V61.2083C88.2812 61.8675 88.7991 62.3854 89.4583 62.3854H103.583C105.514 62.3854 107.115 63.9862 107.115 65.9167V80.0417C107.115 89.7879 99.2045 97.6979 89.4583 97.6979ZM87.8105 90.6354H89.4583C95.2966 90.6354 100.052 85.88 100.052 80.0417V69.4479H89.4583C84.9383 69.4479 81.2187 65.7283 81.2187 61.2083V47.0833C81.2187 42.5633 84.8912 38.8437 89.4583 38.8437L84.4203 30.0392C83.3845 28.2029 81.4072 27.0729 79.2884 27.0729H74.1562V56.5C74.1562 63.6567 68.365 69.4479 61.2083 69.4479H12.9479V80.0417C12.9479 85.88 17.7033 90.6354 23.5416 90.6354H25.1894C26.7432 85.2208 31.7341 81.2187 37.6666 81.2187C43.5991 81.2187 48.5901 85.2208 50.1438 90.6354H62.9032C64.457 85.2208 69.4479 81.2187 75.3804 81.2187C81.3129 81.2187 86.2567 85.2208 87.8105 90.6354Z" fill="#087979"/>
<path d="M37.6667 107.115C30.51 107.115 24.7188 101.323 24.7188 94.1667C24.7188 87.01 30.51 81.2188 37.6667 81.2188C44.8233 81.2188 50.6146 87.01 50.6146 94.1667C50.6146 101.323 44.8233 107.115 37.6667 107.115ZM37.6667 88.2813C34.4179 88.2813 31.7812 90.9179 31.7812 94.1667C31.7812 97.4154 34.4179 100.052 37.6667 100.052C40.9154 100.052 43.5521 97.4154 43.5521 94.1667C43.5521 90.9179 40.9154 88.2813 37.6667 88.2813Z" fill="#087979"/>
<path d="M75.3333 107.115C68.1766 107.115 62.3854 101.323 62.3854 94.1667C62.3854 87.01 68.1766 81.2188 75.3333 81.2188C82.49 81.2188 88.2812 87.01 88.2812 94.1667C88.2812 101.323 82.49 107.115 75.3333 107.115ZM75.3333 88.2813C72.0845 88.2813 69.4479 90.9179 69.4479 94.1667C69.4479 97.4154 72.0845 100.052 75.3333 100.052C78.582 100.052 81.2187 97.4154 81.2187 94.1667C81.2187 90.9179 78.582 88.2813 75.3333 88.2813Z" fill="#087979"/>
<path d="M103.583 69.4479H89.4583C84.9383 69.4479 81.2188 65.7283 81.2188 61.2083V47.0833C81.2188 42.5633 84.9383 38.8438 89.4583 38.8438H95.532C96.8032 38.8438 97.9804 39.5029 98.5925 40.6329L106.644 54.7579C106.926 55.2759 107.115 55.8879 107.115 56.5V65.9167C107.115 67.8471 105.514 69.4479 103.583 69.4479ZM89.4583 45.9062C88.7992 45.9062 88.2813 46.4242 88.2813 47.0833V61.2083C88.2813 61.8675 88.7992 62.3854 89.4583 62.3854H100.052V57.4417L93.4603 45.9062H89.4583Z" fill="#087979"/>
<path d="M23.4951 45.9063C16.9976 45.9063 10.8768 43.0811 6.73344 38.1374C6.07427 37.4311 5.3681 36.4424 4.75602 35.5007C2.5431 32.1578 1.31893 28.2029 1.22477 24.0595C1.03643 17.1854 3.95566 10.7349 9.22899 6.35614C13.2311 3.0603 18.0333 1.27125 23.1183 1.17709C28.6742 1.22417 34.2303 3.06043 38.3736 6.78001C43.0819 10.9233 45.8127 16.7147 45.9539 23.0238C46.0481 27.1201 45.0122 31.1691 42.9405 34.7004C41.8105 36.725 40.2568 38.6555 38.5618 40.068C34.7951 43.6463 29.6159 45.765 24.1072 45.9063C23.8718 45.9063 23.6834 45.9063 23.4951 45.9063ZM23.4951 8.23959C23.4009 8.23959 23.3068 8.23959 23.2126 8.23959C19.7755 8.28667 16.4796 9.55797 13.7017 11.818C10.1233 14.7842 8.14597 19.21 8.24014 23.8713C8.3343 26.6963 9.13477 29.3801 10.6414 31.593C11.0652 32.2522 11.4888 32.8641 12.0067 33.4291C15.0201 37.0074 19.4931 38.8908 23.8718 38.7966C27.6385 38.7025 31.1226 37.2901 33.7592 34.7947C34.9834 33.7588 35.9722 32.5346 36.7255 31.1691C38.1851 28.6737 38.8914 25.9428 38.8443 23.1649C38.7501 18.8333 36.8669 14.8783 33.6653 12.0062C30.8403 9.60495 27.2618 8.23959 23.4951 8.23959Z" fill="#087979"/>
<path d="M20.9515 31.7809C20.0569 31.7809 19.2093 31.4512 18.503 30.792L13.7476 26.2722C12.3351 24.9068 12.2882 22.6939 13.6536 21.2814C15.019 19.8689 17.2319 19.8217 18.6444 21.1871L20.9515 23.3999L28.3436 16.2435C29.7561 14.878 31.969 14.9249 33.3344 16.3374C34.6998 17.7499 34.6526 19.9631 33.2401 21.3285L23.3996 30.8392C22.6934 31.4513 21.799 31.7809 20.9515 31.7809Z" fill="#087979"/>
</svg>
